<?xml version="1.0" encoding="iso-8859-1"?>
<!-- Generator: Adobe Illustrator 19.0.0, SVG Export Plug-In . SVG Version: 6.00 Build 0)  -->
<svg version="1.1" id="Layer_1" xmlns="http://www.w3.org/2000/svg" xmlns:xlink="http://www.w3.org/1999/xlink" x="0px" y="0px"
	 viewBox="0 0 512 512" style="enable-background:new 0 0 512 512;" xml:space="preserve">
<path style="fill:#BEF5FF;" d="M426.11,106.628C407.475,44.94,350.251,0,282.483,0c-47.731,0-90.167,22.356-117.653,57.088
	c-7.386-2.622-15.303-4.122-23.588-4.122c-39.002,0-70.621,31.618-70.621,70.621c0,0.594,0.074,1.17,0.089,1.76
	C30.374,133.493,0,169.124,0,211.862c0,48.754,39.522,88.276,88.276,88.276h326.621c53.629,0,97.103-43.475,97.103-97.103
	C512,153.204,474.449,112.195,426.11,106.628z"/>
<g>
	<path style="fill:#AAEBFA;" d="M79.448,229.517c0-39.708,26.222-73.28,62.29-84.375c2.479-22.026,20.952-39.211,43.641-39.211
		c1.639,0,3.192,0.308,4.783,0.482c15.31-56.205,66.573-97.586,127.63-97.586c6.391,0,12.665,0.49,18.814,1.366
		C319.805,3.681,301.59,0,282.483,0c-47.731,0-90.167,22.356-117.653,57.088c-7.386-2.622-15.303-4.122-23.588-4.122
		c-39.002,0-70.621,31.618-70.621,70.621c0,0.594,0.074,1.17,0.089,1.76C30.374,133.493,0,169.124,0,211.862
		c0,48.754,39.522,88.276,88.276,88.276h26.644C93.423,284.038,79.448,258.441,79.448,229.517z"/>
	<circle style="fill:#AAEBFA;" cx="211.862" cy="494.345" r="17.655"/>
</g>
<g>
	<circle style="fill:#91D2EB;" cx="211.862" cy="414.897" r="8.828"/>
	<circle style="fill:#91D2EB;" cx="211.862" cy="450.207" r="8.828"/>
	<circle style="fill:#91D2EB;" cx="211.862" cy="344.276" r="8.828"/>
	<circle style="fill:#91D2EB;" cx="211.862" cy="379.586" r="8.828"/>
	<path style="fill:#91D2EB;" d="M203.034,300.138v8.828c0,4.875,3.953,8.828,8.828,8.828c4.875,0,8.828-3.953,8.828-8.828v-8.828
		H203.034z"/>
</g>
<circle style="fill:#AAEBFA;" cx="300.138" cy="494.345" r="17.655"/>
<g>
	<circle style="fill:#91D2EB;" cx="300.138" cy="414.897" r="8.828"/>
	<circle style="fill:#91D2EB;" cx="300.138" cy="450.207" r="8.828"/>
	<circle style="fill:#91D2EB;" cx="300.138" cy="344.276" r="8.828"/>
	<circle style="fill:#91D2EB;" cx="300.138" cy="379.586" r="8.828"/>
	<path style="fill:#91D2EB;" d="M291.31,300.138v8.828c0,4.875,3.953,8.828,8.828,8.828s8.828-3.953,8.828-8.828v-8.828H291.31z"/>
</g>
<circle style="fill:#AAEBFA;" cx="44.138" cy="414.897" r="17.655"/>
<g>
	<circle style="fill:#91D2EB;" cx="123.586" cy="414.897" r="8.828"/>
	<circle style="fill:#91D2EB;" cx="88.276" cy="414.897" r="8.828"/>
	<circle style="fill:#91D2EB;" cx="123.586" cy="344.276" r="8.828"/>
	<circle style="fill:#91D2EB;" cx="123.586" cy="379.586" r="8.828"/>
	<path style="fill:#91D2EB;" d="M114.759,300.138v8.828c0,4.875,3.953,8.828,8.828,8.828c4.875,0,8.828-3.953,8.828-8.828v-8.828
		H114.759z"/>
</g>
<circle style="fill:#AAEBFA;" cx="467.862" cy="414.897" r="17.655"/>
<g>
	<circle style="fill:#91D2EB;" cx="388.414" cy="414.897" r="8.828"/>
	<circle style="fill:#91D2EB;" cx="423.724" cy="414.897" r="8.828"/>
	<circle style="fill:#91D2EB;" cx="388.414" cy="344.276" r="8.828"/>
	<circle style="fill:#91D2EB;" cx="388.414" cy="379.586" r="8.828"/>
	<path style="fill:#91D2EB;" d="M397.241,300.138v8.828c0,4.875-3.953,8.828-8.828,8.828s-8.828-3.953-8.828-8.828v-8.828H397.241z"
		/>
</g>
<g>
</g>
<g>
</g>
<g>
</g>
<g>
</g>
<g>
</g>
<g>
</g>
<g>
</g>
<g>
</g>
<g>
</g>
<g>
</g>
<g>
</g>
<g>
</g>
<g>
</g>
<g>
</g>
<g>
</g>
</svg>
