<?xml version="1.0" encoding="iso-8859-1"?>
<!-- Generator: Adobe Illustrator 19.0.0, SVG Export Plug-In . SVG Version: 6.00 Build 0)  -->
<svg version="1.1" id="Layer_1" xmlns="http://www.w3.org/2000/svg" xmlns:xlink="http://www.w3.org/1999/xlink" x="0px" y="0px"
	 viewBox="0 0 512 512" style="enable-background:new 0 0 512 512;" xml:space="preserve">
<g>
	<polygon style="fill:#FF5F5F;" points="0,182.08 255.92,333.36 0,484.56 	"/>
	<polygon style="fill:#FF5F5F;" points="511.84,484.56 255.92,333.36 511.84,182.08 	"/>
</g>
<polygon style="fill:#FF8383;" points="0,484.56 511.84,484.56 255.92,333.36 "/>
<polygon style="fill:#EFEFEF;" points="46.32,27.52 46.32,209.04 256.16,333.6 465.68,209.6 465.68,27.44 "/>
<polygon style="fill:#D84C4C;" points="512,182.08 465.84,147.2 465.84,209.36 "/>
<path style="fill:#8AD5DD;" d="M247.92,255.52v-22.8c-13.12-0.24-26.64-4.32-34.56-9.92l5.44-15.12c8.16,5.44,19.84,9.68,32.48,9.68
	c16,0,26.88-9.28,26.88-22.16c0-12.4-8.8-20.08-25.52-26.88c-23.04-9.04-37.2-19.44-37.2-39.04c0-18.72,13.28-32.96,34.08-36.32
	v-22.8h14v21.92c13.52,0.48,22.8,4.08,29.36,7.92l-5.68,14.88c-4.72-2.72-14-7.68-28.4-7.68c-17.36,0-23.92,10.4-23.92,19.44
	c0,11.76,8.32,17.6,28,25.76c23.28,9.44,34.96,21.2,34.96,41.28c0,17.84-12.4,34.56-35.68,38.4v23.44L247.92,255.52L247.92,255.52z"
	/>
<g>
</g>
<g>
</g>
<g>
</g>
<g>
</g>
<g>
</g>
<g>
</g>
<g>
</g>
<g>
</g>
<g>
</g>
<g>
</g>
<g>
</g>
<g>
</g>
<g>
</g>
<g>
</g>
<g>
</g>
</svg>
