<?xml version="1.0" encoding="iso-8859-1"?>
<!-- Generator: Adobe Illustrator 19.0.0, SVG Export Plug-In . SVG Version: 6.00 Build 0)  -->
<svg version="1.1" id="Layer_1" xmlns="http://www.w3.org/2000/svg" xmlns:xlink="http://www.w3.org/1999/xlink" x="0px" y="0px"
	 viewBox="0 0 512 512" style="enable-background:new 0 0 512 512;" xml:space="preserve">
<path style="fill:#FFD782;" d="M509.415,143.83l-15.07-15.072c-3.31-3.311-7.801-5.172-12.483-5.172H212.797
	c-6.189,0-11.994-3.206-15.08-8.572C179.143,82.711,144.1,61.092,103.996,61.81C48.671,62.802,2.32,108.051,0.089,163.338
	c-2.442,60.501,45.882,110.318,105.843,110.318c39.258,0,73.449-21.4,91.735-53.135c3.107-5.394,8.902-8.658,15.126-8.658h96.172
	c2.342,0,4.587-0.93,6.242-2.585l8.828-8.828c3.448-3.448,9.037-3.448,12.484,0l11.413,11.413h8.828l11.413-11.414
	c3.448-3.447,9.037-3.447,12.484,0l11.413,11.414h8.828l11.412-11.413c3.448-3.447,9.037-3.448,12.484,0l8.828,8.828
	c1.655,1.655,3.902,2.585,6.242,2.585h13.998l55.551-55.549C512.862,152.867,512.862,147.277,509.415,143.83z M79.449,194.208
	c-14.626,0-26.483-11.857-26.483-26.483c0-14.626,11.857-26.483,26.483-26.483s26.483,11.857,26.483,26.483
	C105.931,182.351,94.075,194.208,79.449,194.208z"/>
<path style="fill:#FFC36E;" d="M467.862,158.898H229.518c-4.875,0-8.828-3.953-8.828-8.828l0,0c0-4.875,3.953-8.828,8.828-8.828
	h238.345c4.875,0,8.828,3.953,8.828,8.828l0,0C476.69,154.945,472.737,158.898,467.862,158.898z"/>
<path style="fill:#FFE3A8;" d="M105.931,256.001c-48.676,0-88.276-39.604-88.276-88.276s39.599-88.276,88.276-88.276
	s88.276,39.604,88.276,88.276S154.608,256.001,105.931,256.001z M105.931,97.104c-38.94,0-70.621,31.681-70.621,70.621
	s31.681,70.621,70.621,70.621s70.621-31.681,70.621-70.621S144.871,97.104,105.931,97.104z"/>
<g>
	<path style="fill:#E4EAF6;" d="M154.483,344.277H30.897c-7.313,0-13.241-5.929-13.241-13.241l0,0
		c0-7.313,5.929-13.241,13.241-13.241h123.586c7.313,0,13.241,5.929,13.241,13.241l0,0
		C167.725,338.348,161.796,344.277,154.483,344.277z"/>
	<path style="fill:#E4EAF6;" d="M481.104,344.277h-52.966c-7.313,0-13.241-5.929-13.241-13.241l0,0
		c0-7.313,5.929-13.241,13.241-13.241h52.966c7.313,0,13.241,5.929,13.241,13.241l0,0
		C494.345,338.348,488.416,344.277,481.104,344.277z"/>
	<path style="fill:#E4EAF6;" d="M375.173,344.277H207.449c-7.313,0-13.241-5.929-13.241-13.241l0,0
		c0-7.313,5.929-13.241,13.241-13.241h167.724c7.313,0,13.241,5.929,13.241,13.241l0,0
		C388.414,338.348,382.485,344.277,375.173,344.277z"/>
	<path style="fill:#E4EAF6;" d="M154.483,450.208H30.897c-7.313,0-13.241-5.929-13.241-13.241l0,0
		c0-7.313,5.929-13.241,13.241-13.241h123.586c7.313,0,13.241,5.929,13.241,13.241l0,0
		C167.725,444.279,161.796,450.208,154.483,450.208z"/>
	<path style="fill:#E4EAF6;" d="M481.104,450.208h-52.966c-7.313,0-13.241-5.929-13.241-13.241l0,0
		c0-7.313,5.929-13.241,13.241-13.241h52.966c7.313,0,13.241,5.929,13.241,13.241l0,0
		C494.345,444.279,488.416,450.208,481.104,450.208z"/>
	<path style="fill:#E4EAF6;" d="M375.173,450.208H207.449c-7.313,0-13.241-5.929-13.241-13.241l0,0
		c0-7.313,5.929-13.241,13.241-13.241h167.724c7.313,0,13.241,5.929,13.241,13.241l0,0
		C388.414,444.279,382.485,450.208,375.173,450.208z"/>
	<path style="fill:#E4EAF6;" d="M357.518,370.76h123.586c7.313,0,13.241,5.929,13.241,13.241l0,0
		c0,7.313-5.929,13.241-13.241,13.241H357.518c-7.313,0-13.241-5.929-13.241-13.241l0,0
		C344.276,376.687,350.204,370.76,357.518,370.76z"/>
	<path style="fill:#E4EAF6;" d="M30.897,370.76h52.966c7.313,0,13.241,5.929,13.241,13.241l0,0c0,7.313-5.929,13.241-13.241,13.241
		H30.897c-7.313,0-13.241-5.929-13.241-13.241l0,0C17.656,376.687,23.583,370.76,30.897,370.76z"/>
	<path style="fill:#E4EAF6;" d="M136.828,370.76h167.724c7.313,0,13.241,5.929,13.241,13.241l0,0
		c0,7.313-5.929,13.241-13.241,13.241H136.828c-7.313,0-13.241-5.929-13.241-13.241l0,0
		C123.587,376.687,129.514,370.76,136.828,370.76z"/>
</g>
<g>
</g>
<g>
</g>
<g>
</g>
<g>
</g>
<g>
</g>
<g>
</g>
<g>
</g>
<g>
</g>
<g>
</g>
<g>
</g>
<g>
</g>
<g>
</g>
<g>
</g>
<g>
</g>
<g>
</g>
</svg>
