<?xml version="1.0" encoding="iso-8859-1"?>
<!-- Generator: Adobe Illustrator 19.0.0, SVG Export Plug-In . SVG Version: 6.00 Build 0)  -->
<svg version="1.1" id="Layer_1" xmlns="http://www.w3.org/2000/svg" xmlns:xlink="http://www.w3.org/1999/xlink" x="0px" y="0px"
	 viewBox="0 0 512 512" style="enable-background:new 0 0 512 512;" xml:space="preserve">
<rect x="64" style="fill:#EFEFEF;" width="384" height="512"/>
<rect x="106.64" y="370.24" style="fill:#002833;" width="298.64" height="10.64"/>
<g>
	<rect x="106.64" y="412.88" style="fill:#C9C9C9;" width="298.64" height="10.64"/>
	<rect x="106.64" y="434.24" style="fill:#C9C9C9;" width="298.64" height="10.64"/>
	<rect x="106.64" y="455.6" style="fill:#C9C9C9;" width="298.64" height="10.64"/>
</g>
<g>
	<path style="fill:#FF5F5F;" d="M392,338.24H120c-8.8,0-16-7.2-16-16V124.88c0-8.8,7.2-16,16-16h272c8.8,0,16,7.2,16,16v197.36
		C408,331.04,400.8,338.24,392,338.24z"/>
	<rect x="104" y="44.88" style="fill:#FF5F5F;" width="53.36" height="32"/>
</g>
<rect x="189.36" y="44.88" style="fill:#C9C9C9;" width="218.64" height="32"/>
<g>
	<circle style="fill:#FFFFFF;" cx="256" cy="176.64" r="40.4"/>
	<path style="fill:#FFFFFF;" d="M254.08,310.96l-39.04-84.64c0,0-40.96,0.56-40.96,38.24s0,46.4,0,46.4S254.4,310.96,254.08,310.96z
		"/>
	<path style="fill:#FFFFFF;" d="M257.92,310.96l39.04-84.64c0,0,40.96,0.56,40.96,38.24s0,46.4,0,46.4S257.6,310.96,257.92,310.96z"
		/>
	<polygon style="fill:#FFFFFF;" points="256,226.32 227.92,226.32 256,288.56 284.08,226.32 	"/>
</g>
<g>
</g>
<g>
</g>
<g>
</g>
<g>
</g>
<g>
</g>
<g>
</g>
<g>
</g>
<g>
</g>
<g>
</g>
<g>
</g>
<g>
</g>
<g>
</g>
<g>
</g>
<g>
</g>
<g>
</g>
</svg>
